# xmcd CD database file
#
# Track frame offsets:
#	150
#	15579
#	36787
#	43015
#	49893
#
# Disc length: 1043 seconds
#
# Revision: 2
# Processed by: cddbd v1.4b41PL1 Copyright (c) Steve Scherf et al.
# Submitted via: Feurio! 1.50.2ß - http://www.feurio.com
#
DISCID=38041105
DTITLE=Thommie Bayer - Der letzte Cowboy
DYEAR=1900
DGENRE=
TTITLE0=Mathias Ponnier - über T. Bayer Teil 1
TTITLE1=Der letzte Cowboy
TTITLE2=über T. Bayer Teil 2
TTITLE3=der langsame Tanz
TTITLE4=Heute gibt es keine Indianer mehr
EXTD=
EXTT0=
EXTT1=
EXTT2=
EXTT3=
EXTT4=
PLAYORDER=
